<svg width="16" height="17" viewBox="0 0 16 17" fill="none" xmlns="http://www.w3.org/2000/svg">
<g id="Icons / Circles and Groups / Groups">
<path id="Vector" d="M6.00002 3.16669H8.00002L9.33335 4.50002H12.6667C13.0203 4.50002 13.3594 4.6405 13.6095 4.89054C13.8595 5.14059 14 5.47973 14 5.83335V10.5C14 10.8536 13.8595 11.1928 13.6095 11.4428C13.3594 11.6929 13.0203 11.8334 12.6667 11.8334H6.00002C5.6464 11.8334 5.30726 11.6929 5.05721 11.4428C4.80716 11.1928 4.66669 10.8536 4.66669 10.5V4.50002C4.66669 4.1464 4.80716 3.80726 5.05721 3.55721C5.30726 3.30716 5.6464 3.16669 6.00002 3.16669Z" stroke="#2F3746" stroke-width="1.33333" stroke-linecap="round" stroke-linejoin="round"/>
<path id="Vector_2" d="M11.3333 11.8333V13.1666C11.3333 13.5203 11.1929 13.8594 10.9428 14.1095C10.6928 14.3595 10.3536 14.5 10 14.5H3.33333C2.97971 14.5 2.64057 14.3595 2.39052 14.1095C2.14048 13.8594 2 13.5203 2 13.1666V7.16665C2 6.81302 2.14048 6.47389 2.39052 6.22384C2.64057 5.97379 2.97971 5.83331 3.33333 5.83331H4.66667" stroke="#2F3746" stroke-width="1.33333" stroke-linecap="round" stroke-linejoin="round"/>
</g>
</svg>
