<svg width="60" height="60" viewBox="0 0 60 60" fill="none" xmlns="http://www.w3.org/2000/svg">
<g clip-path="url(#clip0_5075_284464)">
<path d="M44.7295 47.0086C41.4447 49.8532 37.4066 51.6858 33.1028 52.2851C28.799 52.8843 24.4138 52.2245 20.477 50.3854C16.5401 48.5463 13.2199 45.6065 10.9177 41.9213C8.6154 38.236 7.4295 33.963 7.50321 29.6183C7.57693 25.2737 8.90712 21.0433 11.3331 17.4383C13.7591 13.8333 17.177 11.0079 21.174 9.30336C25.171 7.59886 29.5761 7.08821 33.857 7.8331C38.138 8.57799 42.1117 10.5466 45.298 13.501" stroke="#2F3746" stroke-width="3" stroke-linecap="round"/>
<path d="M28 40.9584C23.5 42 20.5 39.5 19.3877 37.6552" stroke="#2F3746" stroke-width="3" stroke-linecap="round" stroke-linejoin="round"/>
<circle cx="20.1543" cy="23.1251" r="3.125" fill="#2F3746"/>
<circle cx="37.5" cy="28.5" r="4.5" fill="#2F3746"/>
<path d="M54 45L45 36M48 28.5C48 29.8789 47.7284 31.2443 47.2007 32.5182C46.6731 33.7921 45.8996 34.9496 44.9246 35.9246C43.9496 36.8996 42.7921 37.6731 41.5182 38.2007C40.2443 38.7284 38.8789 39 37.5 39C36.1211 39 34.7557 38.7284 33.4818 38.2007C32.2079 37.6731 31.0504 36.8996 30.0754 35.9246C29.1004 34.9496 28.3269 33.7921 27.7993 32.5182C27.2716 31.2443 27 29.8789 27 28.5C27 25.7152 28.1062 23.0445 30.0754 21.0754C32.0445 19.1062 34.7152 18 37.5 18C40.2848 18 42.9555 19.1062 44.9246 21.0754C46.8938 23.0445 48 25.7152 48 28.5Z" stroke="#D22D2E" stroke-width="4" stroke-linecap="round" stroke-linejoin="round"/>
</g>
<defs>
<clipPath id="clip0_5075_284464">
<rect width="60" height="60" fill="white"/>
</clipPath>
</defs>
</svg>
