<svg width="60" height="60" viewBox="0 0 60 60" fill="none" xmlns="http://www.w3.org/2000/svg">
<path d="M52.2404 26.5922C51.6302 22.6096 49.9617 18.8639 47.4093 15.7464C44.8568 12.6289 41.5141 10.254 37.7303 8.86968C33.9464 7.48541 29.8603 7.14259 25.8987 7.87702C21.9371 8.61145 18.2453 10.3962 15.2091 13.0448C12.1729 15.6934 9.90365 19.1088 8.63833 22.934C7.373 26.7593 7.15806 30.8541 8.01596 34.7909C8.87385 38.7276 10.7731 42.3617 13.5153 45.3136C16.2576 48.2656 19.7421 50.427 23.6051 51.5722" stroke="#2F3746" stroke-width="3" stroke-linecap="round" stroke-linejoin="round"/>
<path d="M24.7522 41.9825C21.0787 41.4577 19.5044 40.4081 17.9301 36.7347" stroke="#2F3746" stroke-width="3" stroke-linecap="round" stroke-linejoin="round"/>
<path d="M19.8773 22.9575C21.5668 22.1203 23.1564 21.964 24.3749 22.6675C25.5934 23.371 26.2528 24.8257 26.3725 26.7075" stroke="#2F3746" stroke-width="3" stroke-linecap="round" stroke-linejoin="round"/>
<path d="M41.1671 26.1165C41.3948 25.5788 41.4673 24.9881 41.3764 24.4113C41.2856 23.8345 41.0349 23.2947 40.6529 22.8531C40.2708 22.4115 39.7727 22.0858 39.215 21.9129C38.6573 21.74 38.0623 21.7268 37.4974 21.8748C36.9326 22.0228 36.4205 22.3261 36.0192 22.7503C35.618 23.1745 35.3436 23.7027 35.2272 24.2749C35.1108 24.847 35.1571 25.4404 35.3608 25.9876C35.5644 26.5349 35.9173 27.0141 36.3795 27.371C36.3795 27.371 37.2423 26.231 38.4708 25.7039C39.6993 25.1767 41.1671 26.1165 41.1671 26.1165Z" fill="#2F3746"/>
<path fill-rule="evenodd" clip-rule="evenodd" d="M58.863 49.2008V35.0009C58.863 33.4324 57.5002 32.1609 55.8192 32.1609H51.8687C51.4767 32.1609 51.1026 31.9968 50.837 31.7084L49.1379 29.8628C49.0302 29.7459 48.9462 29.6099 48.8711 29.4698C48.359 28.5143 47.3085 27.9009 46.1492 27.9009H41.1394C40.0176 27.9009 38.9976 28.4753 38.4688 29.3783C38.3543 29.5739 38.2216 29.7609 38.0459 29.9039L35.6608 31.846C35.4106 32.0497 35.0979 32.1609 34.7753 32.1609H31.4694C29.7884 32.1609 28.4257 33.4324 28.4257 35.0009V49.2008C28.4257 50.7693 29.7884 52.0408 31.4694 52.0408H55.8192C57.5002 52.0408 58.863 50.7693 58.863 49.2008ZM50.4665 42.07C50.4665 45.8378 47.4121 48.8922 43.6444 48.8922C39.8766 48.8922 36.8222 45.8378 36.8222 42.07C36.8222 38.3023 39.8766 35.2479 43.6444 35.2479C47.4121 35.2479 50.4665 38.3023 50.4665 42.07ZM43.6444 45.7435C45.6732 45.7435 47.3178 44.0988 47.3178 42.07C47.3178 40.0412 45.6732 38.3966 43.6444 38.3966C41.6156 38.3966 39.9709 40.0412 39.9709 42.07C39.9709 44.0988 41.6156 45.7435 43.6444 45.7435Z" fill="#D22D2E"/>
</svg>
