<svg width="24" height="24" viewBox="0 0 24 24" fill="none" xmlns="http://www.w3.org/2000/svg">
<path d="M12 21C10.33 21 8.69289 20.5353 7.27188 19.658C5.85088 18.7807 4.70201 17.5252 3.9538 16.0322C3.20559 14.5392 2.88756 12.8674 3.03528 11.2039C3.183 9.54043 3.79065 7.95086 4.79025 6.61303C5.78985 5.2752 7.14196 4.24188 8.69533 3.62867C10.2487 3.01546 11.9421 2.84655 13.5859 3.14084C15.2298 3.43512 16.7594 4.181 18.0036 5.29501C19.2478 6.40903 20.1574 7.84725 20.6308 9.44877" stroke="#2F3746" stroke-width="2" stroke-linecap="round"/>
<path d="M6.80884 13.2595C6.75063 14.8078 6.84573 16.4139 8.99207 17.2227C10.8318 17.9159 12.0733 16.9444 13.0946 15.6281C9.52961 15.3316 6.80884 13.2595 6.80884 13.2595Z" fill="#2F3746"/>
<path d="M7.5918 10C8.00963 9.37208 8.52899 9 9.0918 9C9.6546 9 10.174 9.37208 10.5918 10" stroke="#2F3746" stroke-linecap="round" stroke-linejoin="round"/>
<path d="M13.8893 10C14.3071 9.37208 14.8265 9 15.3893 9C15.9521 9 16.4715 9.37208 16.8893 10" stroke="#2F3746" stroke-linecap="round" stroke-linejoin="round"/>
<path fill-rule="evenodd" clip-rule="evenodd" d="M14.309 17.8282C13.8804 17.1743 13.7493 16.4152 13.7493 15.6055C13.7493 13.1505 16.0048 11.1603 18.7872 11.1603C21.5695 11.1603 23.8251 13.1505 23.8251 15.6055C23.8251 18.0606 21.5695 20.0508 18.7872 20.0508C17.7515 20.0508 16.7889 19.9679 15.9883 19.4951L13.7493 20.0508L14.309 17.8282ZM21.158 16.4946C20.667 16.4946 20.2689 16.0966 20.2689 15.6055C20.2689 15.1145 20.667 14.7165 21.158 14.7165C21.649 14.7165 22.047 15.1145 22.047 15.6055C22.047 16.0966 21.649 16.4946 21.158 16.4946ZM17.8981 15.6055C17.8981 16.0966 18.2962 16.4946 18.7872 16.4946C19.2782 16.4946 19.6762 16.0966 19.6762 15.6055C19.6762 15.1145 19.2782 14.7165 18.7872 14.7165C18.2962 14.7165 17.8981 15.1145 17.8981 15.6055ZM16.4164 16.4946C15.9254 16.4946 15.5274 16.0966 15.5274 15.6055C15.5274 15.1145 15.9254 14.7165 16.4164 14.7165C16.9074 14.7165 17.3054 15.1145 17.3054 15.6055C17.3054 16.0966 16.9074 16.4946 16.4164 16.4946Z" fill="#D22D2E"/>
</svg>
