<svg width="60" height="60" viewBox="0 0 60 60" fill="none" xmlns="http://www.w3.org/2000/svg">
<path d="M30.7874 52.4863C26.5127 52.636 22.2839 51.5641 18.5966 49.3963C14.9093 47.2285 11.9164 44.0545 9.9685 40.2465C8.02063 36.4384 7.19856 32.1541 7.59864 27.8955C7.99873 23.6369 9.60438 19.5806 12.2274 16.202C14.8505 12.8234 18.3822 10.2625 22.4087 8.81935C26.4352 7.37623 30.7897 7.11072 34.9617 8.05396C39.1337 8.99719 42.9504 11.1101 45.9645 14.145C48.9786 17.1799 51.0652 21.0111 51.9797 25.1895" stroke="#2F3746" stroke-width="3" stroke-linecap="round"/>
<path d="M17.0222 33.1487C16.8767 37.0195 17.1144 41.0347 22.4803 43.0567C27.0796 44.7899 30.1834 42.361 32.7365 39.0703C23.8242 38.3289 17.0222 33.1487 17.0222 33.1487Z" fill="#2F3746"/>
<path d="M18.9796 25C20.0242 23.4302 21.3226 22.5 22.7296 22.5C24.1366 22.5 25.435 23.4302 26.4796 25" stroke="#2F3746" stroke-width="3" stroke-linecap="round" stroke-linejoin="round"/>
<path d="M34.723 25C35.7676 23.4302 37.066 22.5 38.473 22.5C39.88 22.5 41.1784 23.4302 42.223 25" stroke="#2F3746" stroke-width="3" stroke-linecap="round" stroke-linejoin="round"/>
<path fill-rule="evenodd" clip-rule="evenodd" d="M35.7725 44.5704C34.7009 42.9358 34.3731 41.0381 34.3731 39.0139C34.3731 32.8763 40.012 27.9009 46.9679 27.9009C53.9238 27.9009 59.5626 32.8763 59.5626 39.0139C59.5626 45.1515 53.9238 50.1269 46.9679 50.1269C44.3787 50.1269 41.9721 49.9198 39.9708 48.7378L34.3731 50.1269L35.7725 44.5704ZM52.8948 41.2365C51.6673 41.2365 50.6722 40.2414 50.6722 39.0139C50.6722 37.7864 51.6673 36.7913 52.8948 36.7913C54.1223 36.7913 55.1174 37.7864 55.1174 39.0139C55.1174 40.2414 54.1223 41.2365 52.8948 41.2365ZM44.7453 39.0139C44.7453 40.2414 45.7404 41.2365 46.9679 41.2365C48.1954 41.2365 49.1905 40.2414 49.1905 39.0139C49.1905 37.7864 48.1954 36.7913 46.9679 36.7913C45.7404 36.7913 44.7453 37.7864 44.7453 39.0139ZM41.0409 41.2365C39.8134 41.2365 38.8183 40.2414 38.8183 39.0139C38.8183 37.7864 39.8134 36.7913 41.0409 36.7913C42.2684 36.7913 43.2635 37.7864 43.2635 39.0139C43.2635 40.2414 42.2684 41.2365 41.0409 41.2365Z" fill="#D22D2E"/>
</svg>
