<svg width="24" height="24" viewBox="0 0 24 24" fill="none" xmlns="http://www.w3.org/2000/svg">
<path d="M13.8791 20.8017C12.1383 21.1733 10.3264 21.0204 8.67246 20.3623C7.01856 19.7041 5.59696 18.5704 4.58743 17.1043C3.57789 15.6382 3.02577 13.9057 3.00088 12.1259C2.97599 10.346 3.47944 8.59873 4.44758 7.105C5.41572 5.61128 6.80506 4.43818 8.43991 3.73406C10.0748 3.02994 11.8817 2.82642 13.6322 3.14924C15.3827 3.47206 16.9982 4.30672 18.2743 5.54767C19.5505 6.78862 20.43 8.38012 20.8017 10.1209" stroke="#2F3746" stroke-width="2" stroke-linecap="round"/>
<path d="M11.7342 15.9834C10.2606 16.1609 9.54364 15.9184 8.55505 14.662" stroke="#2F3746" stroke-width="2" stroke-linecap="round" stroke-linejoin="round"/>
<path d="M17.8114 9.81328C17.9798 9.37035 18.615 9.37035 18.7834 9.81328L19.8697 12.8224C19.9457 13.0222 20.1394 13.1545 20.3557 13.1545H23.0251C23.5181 13.1545 23.7334 13.7687 23.3458 14.0691L21.4461 15.7785C21.2712 15.914 21.2032 16.1445 21.2773 16.3514L21.9708 19.2919C22.1397 19.7638 21.5925 20.1698 21.1797 19.8789L18.5991 18.2421C18.4186 18.1149 18.1761 18.1149 17.9957 18.2421L15.415 19.8789C15.0022 20.1698 14.4551 19.7638 14.6239 19.2919L15.3175 16.3514C15.3915 16.1445 15.3236 15.914 15.1487 15.7785L13.2489 14.0691C12.8614 13.7687 13.0767 13.1545 13.5696 13.1545H16.239C16.4554 13.1545 16.649 13.0222 16.725 12.8224L17.8114 9.81328Z" fill="#D22D2E"/>
<ellipse cx="15.25" cy="9.25" rx="1.25" ry="1.25" fill="#2F3746"/>
<ellipse cx="9.26172" cy="9.25006" rx="1.25" ry="1.25" fill="#2F3746"/>
</svg>
