<svg width="60" height="60" viewBox="0 0 60 60" fill="none" xmlns="http://www.w3.org/2000/svg">
<path d="M34.6977 52.0042C30.3457 52.9333 25.8159 52.551 21.6812 50.9057C17.5464 49.2604 13.9924 46.426 11.4686 42.7608C8.94474 39.0956 7.56443 34.7643 7.5022 30.3147C7.43997 25.8651 8.69861 21.4969 11.119 17.7626C13.5393 14.0283 17.0127 11.0955 21.0998 9.33521C25.1869 7.57491 29.7042 7.06612 34.0805 7.87317C38.4568 8.68021 42.4955 10.7669 45.6859 13.8692C48.8762 16.9716 51.075 20.9504 52.0041 25.3024" stroke="#2F3746" stroke-width="3" stroke-linecap="round"/>
<path d="M29.3355 39.9584C25.6514 40.4023 23.859 39.796 21.3876 36.6552" stroke="#2F3746" stroke-width="3" stroke-linecap="round" stroke-linejoin="round"/>
<path d="M44.5284 24.5331C44.9494 23.4258 46.5374 23.4258 46.9584 24.5331L49.6743 32.0558C49.8643 32.5554 50.3484 32.8863 50.8893 32.8863H57.5628C58.7951 32.8863 59.3334 34.4217 58.3646 35.1727L53.6152 39.4461C53.1779 39.785 53.0081 40.3612 53.1932 40.8785L54.9271 48.2297C55.3493 49.4094 53.9813 50.4244 52.9493 49.6972L46.4977 45.6052C46.0465 45.2873 45.4404 45.2873 44.9892 45.6052L38.5376 49.6972C37.5055 50.4244 36.1376 49.4094 36.5598 48.2297L38.2937 40.8785C38.4788 40.3612 38.309 39.785 37.8717 39.4461L33.1224 35.1727C32.1534 34.4217 32.6918 32.8863 33.924 32.8863H40.5975C41.1384 32.8863 41.6226 32.5554 41.8125 32.0558L44.5284 24.5331Z" fill="#D22D2E"/>
<ellipse cx="38.125" cy="23.1251" rx="3.125" ry="3.125" fill="#2F3746"/>
<circle cx="23.1542" cy="23.1251" r="3.125" fill="#2F3746"/>
</svg>
