<svg width="24" height="24" viewBox="0 0 24 24" fill="none" xmlns="http://www.w3.org/2000/svg">
<path d="M20.8962 10.6369C20.6521 9.04381 19.9847 7.54553 18.9637 6.29853C17.9427 5.05153 16.6056 4.10156 15.0921 3.54785C13.5786 2.99414 11.9441 2.85701 10.3595 3.15078C8.77483 3.44455 7.29814 4.15845 6.08366 5.2179C4.86918 6.27735 3.96146 7.64348 3.45533 9.17358C2.9492 10.7037 2.86322 12.3416 3.20638 13.9163C3.54954 15.491 4.30924 16.9447 5.40614 18.1254C6.50303 19.3062 7.89686 20.1708 9.44204 20.6288" stroke="#2F3746" stroke-width="2" stroke-linecap="round" stroke-linejoin="round"/>
<path d="M9.90086 16.793C8.43147 16.5831 7.80173 16.1632 7.172 14.6938" stroke="#2F3746" stroke-width="2" stroke-linecap="round" stroke-linejoin="round"/>
<path d="M7.95093 9.18298C8.62674 8.8481 9.26256 8.78556 9.74997 9.06696C10.2374 9.34836 10.5011 9.93027 10.549 10.683" stroke="#2F3746" stroke-linecap="round" stroke-linejoin="round"/>
<path d="M16.4668 10.4466C16.5579 10.2315 16.5869 9.99523 16.5506 9.76452C16.5142 9.5338 16.414 9.31788 16.2611 9.14124C16.1083 8.96461 15.9091 8.83432 15.686 8.76515C15.4629 8.69598 15.2249 8.6907 14.999 8.7499C14.773 8.80911 14.5682 8.93043 14.4077 9.10011C14.2472 9.26979 14.1374 9.48105 14.0909 9.70993C14.0443 9.93881 14.0628 10.1761 14.1443 10.395C14.2258 10.6139 14.3669 10.8056 14.5518 10.9484C14.5518 10.9484 14.8969 10.4924 15.3883 10.2815C15.8797 10.0707 16.4668 10.4466 16.4668 10.4466Z" fill="#2F3746"/>
<path fill-rule="evenodd" clip-rule="evenodd" d="M23.5452 19.6803V14.0003C23.5452 13.3729 23.0001 12.8643 22.3277 12.8643H21.1165C20.7245 12.8643 20.3504 12.7002 20.0848 12.4118L19.7527 12.0511C19.6782 11.9702 19.6169 11.8786 19.5555 11.7871L19.5555 11.787C19.5282 11.7463 19.5008 11.7055 19.4724 11.6657C19.2496 11.3542 18.8718 11.1603 18.4597 11.1603H16.4557C16.0812 11.1603 15.7351 11.3204 15.5079 11.5833C15.4622 11.6361 15.4186 11.6912 15.375 11.7462C15.2772 11.8697 15.1794 11.9933 15.0578 12.0923L14.4963 12.5494C14.2462 12.7531 13.9335 12.8643 13.6109 12.8643H12.5877C11.9153 12.8643 11.3702 13.3729 11.3702 14.0003V19.6803C11.3702 20.3077 11.9153 20.8163 12.5877 20.8163H22.3277C23.0001 20.8163 23.5452 20.3077 23.5452 19.6803ZM20.1866 16.828C20.1866 18.3351 18.9648 19.5569 17.4577 19.5569C15.9506 19.5569 14.7289 18.3351 14.7289 16.828C14.7289 15.3209 15.9506 14.0991 17.4577 14.0991C18.9648 14.0991 20.1866 15.3209 20.1866 16.828ZM17.4577 18.2974C18.2692 18.2974 18.9271 17.6395 18.9271 16.828C18.9271 16.0165 18.2692 15.3586 17.4577 15.3586C16.6462 15.3586 15.9883 16.0165 15.9883 16.828C15.9883 17.6395 16.6462 18.2974 17.4577 18.2974Z" fill="#D22D2E"/>
</svg>
