<svg width="24" height="24" viewBox="0 0 24 24" fill="none" xmlns="http://www.w3.org/2000/svg">
<path d="M12.0002 13C13.657 13 15.0002 11.6569 15.0002 10C15.0002 8.34315 13.657 7 12.0002 7C10.3433 7 9.00016 8.34315 9.00016 10C9.00016 11.6569 10.3433 13 12.0002 13ZM12.0002 13C8.82914 13 6.15059 15.1085 5.29004 18M12.0002 13C15.1712 13 17.8497 15.1085 18.7103 18" stroke="#2F3746" stroke-width="2"/>
<path d="M21 12C21 16.9706 16.9706 21 12 21C7.02944 21 3 16.9706 3 12C3 7.02944 7.02944 3 12 3" stroke="#2F3746" stroke-width="2" stroke-linecap="round"/>
<path d="M21.1213 2.87868L16.8787 7.12132" stroke="#2F3746" stroke-width="2" stroke-linecap="round"/>
<path d="M16.8787 2.87869L21.5 2.49998L21.1213 7.12133" stroke="#2F3746" stroke-width="2" stroke-linecap="round" stroke-linejoin="round"/>
</svg>
