<svg width="24" height="24" viewBox="0 0 24 24" fill="none" xmlns="http://www.w3.org/2000/svg">
<path d="M6.85532 20.5751C5.34648 19.6699 4.10321 18.3825 3.25104 16.8431C2.39887 15.3037 1.96797 13.5667 2.00185 11.8074C2.03574 10.0482 2.5332 8.32907 3.44402 6.8236C4.35483 5.31813 5.64675 4.07963 7.18932 3.23317C8.73189 2.3867 10.4705 1.96224 12.2296 2.00264C13.9887 2.04303 15.706 2.54686 17.208 3.46324C18.7101 4.37963 19.9438 5.67612 20.7846 7.22182C21.6253 8.76751 22.0434 10.5077 21.9964 12.2666" stroke="#2F3746" stroke-width="2" stroke-linecap="round"/>
<path d="M6.01968 12.4856C5.91576 11.2058 6.22514 9.92645 6.90233 8.83554C7.57953 7.74464 8.58883 6.89975 9.78187 6.42507C10.9749 5.95038 12.2888 5.87095 13.5303 6.19843C14.7718 6.52592 15.8756 7.24305 16.6793 8.24442C17.483 9.24579 17.9442 10.4786 17.9953 11.7616C18.0463 13.0446 17.6844 14.3101 16.9627 15.3721C16.2411 16.4341 15.1978 17.2367 13.9862 17.6617C12.7746 18.0868 11.4586 18.1119 10.2316 17.7335" stroke="#2F3746" stroke-width="2" stroke-linecap="round"/>
<path d="M11.6527 13.9696C11.3941 13.924 11.1469 13.8279 10.9254 13.6868C10.7039 13.5457 10.5123 13.3623 10.3617 13.1472C10.211 12.932 10.1043 12.6893 10.0474 12.4329C9.99056 12.1765 9.98478 11.9114 10.0304 11.6527C10.076 11.394 10.1721 11.1469 10.3132 10.9254C10.4543 10.7039 10.6377 10.5123 10.8528 10.3617C11.068 10.211 11.3107 10.1043 11.5671 10.0474C11.8235 9.99056 12.0886 9.98478 12.3473 10.0304C12.606 10.076 12.8531 10.1721 13.0746 10.3132C13.2961 10.4543 13.4877 10.6377 13.6383 10.8528C13.789 11.068 13.8957 11.3107 13.9526 11.5671C14.0094 11.8235 14.0152 12.0886 13.9696 12.3473C13.924 12.606 13.8279 12.8531 13.6868 13.0746C13.5457 13.2961 13.3623 13.4877 13.1472 13.6383C12.932 13.789 12.6893 13.8957 12.4329 13.9526C12.1765 14.0094 11.9114 14.0152 11.6527 13.9696L11.6527 13.9696Z" stroke="#2F3746" stroke-width="2" stroke-linecap="round"/>
<path d="M10 17V12" stroke="#2F3746" stroke-width="2" stroke-linecap="round"/>
</svg>
