<svg width="24" height="24" viewBox="0 0 24 24" fill="none" xmlns="http://www.w3.org/2000/svg">
<g clip-path="url(#clip0_5075_284403)">
<path d="M17.5593 18.4764C16.2375 19.6211 14.6126 20.3585 12.8808 20.5996C11.1489 20.8408 9.38437 20.5753 7.80019 19.8352C6.21602 19.0952 4.88002 17.9122 3.9536 16.4293C3.02718 14.9464 2.54998 13.227 2.57965 11.4787C2.60931 9.73044 3.14457 8.02817 4.12076 6.57754C5.09696 5.1269 6.47231 3.98997 8.08069 3.30409C9.68906 2.61821 11.4616 2.41273 13.1843 2.71247C14.9069 3.01221 16.5059 3.80435 17.788 4.99318" stroke="#2F3746" stroke-width="2" stroke-linecap="round"/>
<path d="M10.8274 16.0419C9.01658 16.461 7.8094 15.455 7.36182 14.7126" stroke="#2F3746" stroke-linecap="round" stroke-linejoin="round"/>
<circle cx="7.67032" cy="8.86582" r="1.25748" fill="#2F3746"/>
<circle cx="14.6501" cy="11.0287" r="1.81077" fill="#2F3746"/>
<path d="M21.2897 17.6681L17.6681 14.0466M18.8753 11.0287C18.8753 11.5835 18.766 12.1329 18.5537 12.6455C18.3414 13.1582 18.0301 13.6239 17.6378 14.0163C17.2455 14.4086 16.7797 14.7198 16.2671 14.9322C15.7544 15.1445 15.205 15.2538 14.6502 15.2538C14.0953 15.2538 13.5459 15.1445 13.0333 14.9322C12.5207 14.7198 12.0549 14.4086 11.6626 14.0163C11.2702 13.6239 10.959 13.1582 10.7467 12.6455C10.5343 12.1329 10.425 11.5835 10.425 11.0287C10.425 9.90808 10.8702 8.83341 11.6626 8.04104C12.4549 7.24867 13.5296 6.80353 14.6502 6.80353C15.7708 6.80353 16.8454 7.24867 17.6378 8.04104C18.4302 8.83341 18.8753 9.90808 18.8753 11.0287Z" stroke="#D22D2E" stroke-width="2" stroke-linecap="round" stroke-linejoin="round"/>
</g>
<defs>
<clipPath id="clip0_5075_284403">
<rect width="24" height="24" fill="white"/>
</clipPath>
</defs>
</svg>
