<svg width="172" height="48" viewBox="0 0 172 48" fill="none" xmlns="http://www.w3.org/2000/svg">
<rect width="36.2715" height="36.2715" rx="18.1357" fill="#D22D2E"/>
<g filter="url(#filter0_d_1_4076)">
<path fill-rule="evenodd" clip-rule="evenodd" d="M6.93203 18.0017C6.93203 11.8999 11.9446 6.93203 18.1544 6.93203C24.3642 6.93203 29.3767 11.8999 29.3767 18.0017C29.3767 18.5526 29.8233 18.9992 30.3743 18.9992C30.9252 18.9992 31.3718 18.5526 31.3718 18.0017C31.3718 10.7744 25.4423 4.93695 18.1544 4.93695C10.8665 4.93695 4.93695 10.7744 4.93695 18.0017C4.93695 22.7872 7.53968 26.9655 11.4091 29.2392C11.884 29.5183 12.4954 29.3596 12.7745 28.8846C13.0536 28.4096 12.8948 27.7983 12.4198 27.5191C9.12774 25.5846 6.93203 22.0429 6.93203 18.0017ZM13.3031 13.7338C14.5293 12.4605 16.2485 11.6703 18.1541 11.6703C21.8728 11.6703 24.8875 14.6849 24.8875 18.4037C24.8875 22.1224 21.8728 25.1371 18.1541 25.1371C17.5493 25.1371 16.9644 25.0576 16.4086 24.9089V21.713C16.9298 21.9885 17.5238 22.1445 18.1543 22.1445C20.2203 22.1445 21.8951 20.4697 21.8951 18.4037C21.8951 16.3377 20.2203 14.6629 18.1543 14.6629C16.0883 14.6629 14.4135 16.3377 14.4135 18.4037C14.4135 18.4037 14.4135 18.4037 14.4135 18.4037V25.6359C14.4135 26.094 14.7223 26.48 15.1432 26.5971C15.161 26.6047 15.1792 26.6118 15.1977 26.6185C16.1222 26.9513 17.1181 27.1322 18.1541 27.1322C22.9747 27.1322 26.8825 23.2243 26.8825 18.4037C26.8825 13.5831 22.9747 9.67519 18.1541 9.67519C15.6843 9.67519 13.4527 10.7023 11.866 12.35C11.1256 13.1189 10.5245 14.0239 10.104 15.0246C9.66672 16.0653 9.42557 17.2076 9.42557 18.4037C9.42557 18.9546 9.87218 19.4012 10.4231 19.4012C10.974 19.4012 11.4206 18.9546 11.4206 18.4037C11.4206 17.4777 11.607 16.5978 11.9433 15.7975C12.2672 15.0268 12.7308 14.3282 13.3031 13.7338ZM16.4086 18.4037C16.4086 18.4043 16.4086 18.4049 16.4086 18.4056C16.4096 19.3688 17.1908 20.1494 18.1543 20.1494C19.1184 20.1494 19.9 19.3678 19.9 18.4037C19.9 17.4396 19.1184 16.658 18.1543 16.658C17.1902 16.658 16.4086 17.4396 16.4086 18.4037C16.4086 18.4037 16.4086 18.4037 16.4086 18.4037Z" fill="white"/>
</g>
<path fill-rule="evenodd" clip-rule="evenodd" d="M117.828 24.3294C118.847 24.3294 119.8 24.1265 120.682 23.7186L120.684 23.7176C121.229 23.4599 121.729 23.1428 122.182 22.7663C122.789 22.2621 122.596 21.3817 121.967 21.0262C121.49 20.7564 120.919 20.8623 120.519 21.1637C120.235 21.3772 119.924 21.5582 119.583 21.7064C119.032 21.9296 118.447 22.0417 117.828 22.0417C117.012 22.0417 116.266 21.8496 115.585 21.4666C114.901 21.0649 114.356 20.5283 113.949 19.8539C113.543 19.1828 113.34 18.4489 113.34 17.6467C113.34 16.8444 113.543 16.1105 113.949 15.4394C114.356 14.7653 114.9 14.2378 115.583 13.8533L115.587 13.8509C116.268 13.4515 117.013 13.2516 117.828 13.2516C118.446 13.2516 119.029 13.3717 119.58 13.6111L119.586 13.6136C119.926 13.7513 120.236 13.9246 120.519 14.1334C120.92 14.4298 121.49 14.5371 121.967 14.2671C122.596 13.912 122.791 13.0302 122.179 12.5282C121.726 12.1567 121.228 11.8476 120.683 11.6007C119.801 11.1756 118.848 10.9639 117.828 10.9639C116.608 10.9639 115.476 11.2648 114.434 11.8662C113.395 12.4663 112.569 13.2799 111.96 14.3038C111.349 15.3296 111.044 16.4456 111.044 17.6467C111.044 18.8477 111.349 19.9637 111.96 20.9896C112.569 22.0134 113.395 22.827 114.434 23.4272C115.476 24.0285 116.608 24.3294 117.828 24.3294ZM117.667 12.9888C117.72 12.9872 117.774 12.9863 117.828 12.9863L117.667 12.9888ZM117.609 24.0608C117.682 24.063 117.754 24.0642 117.828 24.0642L117.609 24.0608Z" fill="#2F3746"/>
<path fill-rule="evenodd" clip-rule="evenodd" d="M149.504 23.7186L149.506 23.7176C150.051 23.4599 150.55 23.1428 151.004 22.7663C151.611 22.2621 151.418 21.3817 150.789 21.0262C150.311 20.7564 149.74 20.8623 149.34 21.1637C149.057 21.3772 148.745 21.5582 148.405 21.7064C147.853 21.9296 147.269 22.0417 146.649 22.0417C145.834 22.0417 145.088 21.8496 144.407 21.4666C143.722 21.0649 143.178 20.5283 142.77 19.8539C142.365 19.1828 142.162 18.4489 142.162 17.6467C142.162 16.8444 142.365 16.1105 142.77 15.4394C143.178 14.7653 143.721 14.2378 144.405 13.8533L144.409 13.8509C145.09 13.4515 145.835 13.2516 146.649 13.2516C147.268 13.2516 147.851 13.3717 148.402 13.6111L148.408 13.6136C148.747 13.7513 149.058 13.9246 149.34 14.1334C149.741 14.4298 150.311 14.5371 150.789 14.2671C151.417 13.912 151.612 13.0302 151 12.5282C150.548 12.1567 150.049 11.8476 149.505 11.6007C148.623 11.1756 147.67 10.9639 146.649 10.9639C145.43 10.9639 144.297 11.2648 143.256 11.8662C142.216 12.4663 141.391 13.2799 140.781 14.3038C140.171 15.3296 139.865 16.4456 139.865 17.6467C139.865 18.8477 140.171 19.9637 140.781 20.9896C141.391 22.0134 142.216 22.827 143.256 23.4272C144.297 24.0285 145.43 24.3294 146.649 24.3294C147.669 24.3294 148.622 24.1265 149.504 23.7186ZM146.649 12.9863C146.595 12.9863 146.542 12.9872 146.488 12.9888L146.649 12.9863Z" fill="#2F3746"/>
<path fill-rule="evenodd" clip-rule="evenodd" d="M127.283 7.2768C127.01 7.00754 126.675 6.86804 126.292 6.86804C125.895 6.86804 125.55 7.00452 125.274 7.2768C125.001 7.54606 124.859 7.87621 124.859 8.25383C124.859 8.64413 124.998 8.98405 125.274 9.25633C125.55 9.52862 125.895 9.66509 126.292 9.66509C126.675 9.66509 127.01 9.5256 127.283 9.25633C127.56 8.98405 127.698 8.64413 127.698 8.25383C127.698 7.87622 127.557 7.54607 127.283 7.2768Z" fill="#2F3746"/>
<path fill-rule="evenodd" clip-rule="evenodd" d="M127.44 23.0583V12.0823C127.44 11.4505 126.92 10.9384 126.279 10.9384C125.637 10.9384 125.118 11.4505 125.118 12.0823V23.0583C125.118 23.69 125.637 24.2021 126.279 24.2021C126.92 24.2021 127.44 23.69 127.44 23.0583Z" fill="#2F3746"/>
<path d="M153.446 8.10561C153.446 7.7818 153.549 7.51687 153.754 7.31081C153.96 7.10475 154.224 7.00172 154.547 7.00172C154.87 7.00172 155.135 7.10475 155.34 7.31081C155.546 7.51687 155.649 7.7818 155.649 8.10561V20.1601C155.649 20.7047 155.752 21.1536 155.957 21.5069C156.163 21.8601 156.427 22.0367 156.751 22.0367H157.301C157.595 22.0367 157.83 22.1398 158.006 22.3458C158.197 22.5519 158.293 22.8168 158.293 23.1406C158.293 23.4644 158.153 23.7294 157.874 23.9354C157.595 24.1415 157.235 24.2445 156.795 24.2445H156.751C156.119 24.2445 155.546 24.0753 155.032 23.7367C154.533 23.3835 154.143 22.8978 153.864 22.2796C153.585 21.6467 153.446 20.9402 153.446 20.1601V8.10561Z" fill="#2F3746"/>
<path fill-rule="evenodd" clip-rule="evenodd" d="M165.436 24.2445C164.011 24.2445 162.76 23.9702 161.683 23.4216C160.623 22.8568 159.798 22.0904 159.207 21.1222C158.634 20.1379 158.347 19.0165 158.347 17.7579C158.347 16.3379 158.651 15.1278 159.26 14.1273C159.885 13.1108 160.693 12.3362 161.683 11.8038C162.691 11.2551 163.75 10.9808 164.862 10.9808C165.696 10.9808 166.495 11.1422 167.26 11.4649C168.042 11.7715 168.728 12.2072 169.319 12.7719C169.909 13.3205 170.378 13.974 170.726 14.7324C171.073 15.4747 171.256 16.2895 171.273 17.177C171.256 17.4997 171.117 17.766 170.856 17.9757C170.595 18.1855 170.291 18.2904 169.944 18.2904H160.891C160.968 18.9003 161.154 19.4489 161.449 19.9363C161.848 20.5978 162.387 21.1142 163.064 21.4853C163.742 21.8403 164.497 22.0178 165.331 22.0178C165.957 22.0178 166.478 21.9613 166.895 21.8484C167.312 21.7193 167.659 21.566 167.937 21.3885C168.215 21.211 168.459 21.0416 168.667 20.8802C168.945 20.735 169.206 20.6624 169.449 20.6624C169.762 20.6624 170.022 20.7672 170.231 20.977C170.439 21.1706 170.543 21.4046 170.543 21.6789C170.543 22.0339 170.352 22.3566 169.97 22.6471C169.501 23.0666 168.849 23.4377 168.016 23.7605C167.199 24.0832 166.339 24.2445 165.436 24.2445ZM161.188 15.5554C161.103 15.7618 161.034 15.9877 160.981 16.2331H168.511V16.0636C168.459 15.4989 168.25 15.0067 167.885 14.5872C167.52 14.1515 167.069 13.8207 166.53 13.5948C166.009 13.3528 165.453 13.2318 164.862 13.2318C164.341 13.2318 163.837 13.3125 163.351 13.4738C162.864 13.619 162.439 13.8611 162.074 14.1999C161.709 14.5388 161.414 14.9906 161.188 15.5554Z" fill="#2F3746"/>
<path d="M137.351 10.9277C138.211 10.9277 138.885 11.0556 139.372 11.3115C139.859 11.5673 140.102 11.8871 140.102 12.2709C140.102 12.3828 140.094 12.4628 140.078 12.5107C139.932 13.0224 139.607 13.2783 139.104 13.2783C139.023 13.2783 138.901 13.2623 138.739 13.2303C138.09 13.1184 137.562 13.0624 137.156 13.0624C135.988 13.0624 135.046 13.3262 134.332 13.8539C133.618 14.3816 133.261 15.0931 133.261 15.9886V22.9922C133.261 23.3759 133.155 23.6718 132.944 23.8796C132.75 24.0875 132.449 24.1914 132.043 24.1914C131.654 24.1914 131.354 24.0955 131.143 23.9036C130.932 23.6957 130.826 23.3919 130.826 22.9922V12.2709C130.826 11.8871 130.932 11.5913 131.143 11.3834C131.354 11.1756 131.654 11.0716 132.043 11.0716C132.855 11.0716 133.261 11.4714 133.261 12.2709V12.7266C133.748 12.1669 134.348 11.7272 135.063 11.4074C135.777 11.0876 136.54 10.9277 137.351 10.9277Z" fill="#2F3746"/>
<path d="M94.6185 22.1662C94.8735 22.1662 95.0806 22.2525 95.24 22.4252C95.3993 22.5979 95.479 22.8176 95.479 23.0845C95.479 23.3357 95.3834 23.5476 95.1922 23.7203C95.001 23.893 94.7619 23.9793 94.4751 23.9793H93.9731C93.1286 23.9793 92.3716 23.7831 91.7024 23.3906C91.0331 22.9825 90.5072 22.4409 90.1248 21.7659C89.7582 21.0751 89.575 20.2981 89.575 19.4347V12.617H88.0213C87.7663 12.617 87.5592 12.5464 87.3998 12.4051C87.2564 12.2481 87.1847 12.0597 87.1847 11.8399C87.1847 11.6045 87.2564 11.4161 87.3998 11.2748C87.5592 11.1178 87.7663 11.0393 88.0213 11.0393H89.575V7.92006C89.575 7.65319 89.6547 7.43341 89.814 7.26073C89.9893 7.08806 90.2124 7.00172 90.4833 7.00172C90.7542 7.00172 90.9773 7.08806 91.1526 7.26073C91.3279 7.43341 91.4155 7.65319 91.4155 7.92006V11.0393H94.1166C94.3715 11.0393 94.5707 11.1178 94.7141 11.2748C94.8735 11.4161 94.9532 11.6045 94.9532 11.8399C94.9532 12.0597 94.8735 12.2481 94.7141 12.4051C94.5707 12.5464 94.3715 12.617 94.1166 12.617H91.4155V19.4347C91.4155 20.2353 91.6545 20.8946 92.1326 21.4127C92.6107 21.915 93.2242 22.1662 93.9731 22.1662H94.6185Z" fill="#2F3746"/>
<path d="M46.2183 29.4035C45.7329 29.4035 45.3394 29.0159 45.3394 28.5377V12.443C45.3394 11.9648 45.7329 11.5771 46.2183 11.5771C46.7037 11.5771 47.0972 11.9648 47.0972 12.443V13.6908C47.7004 12.8589 48.407 12.2392 49.217 11.8318C50.027 11.4073 50.9146 11.1951 51.8797 11.1951C53.0516 11.1951 54.1373 11.4837 55.1369 12.061C56.1365 12.6382 56.9292 13.4192 57.5152 14.4039C58.1011 15.3886 58.3941 16.4581 58.3941 17.6126C58.3941 18.7671 58.1011 19.8367 57.5152 20.8214C56.9292 21.8061 56.1365 22.587 55.1369 23.1643C54.1373 23.7415 53.0516 24.0301 51.8797 24.0301C50.656 24.0301 49.6479 23.784 48.8551 23.2916C48.0623 22.7823 47.4764 22.239 47.0972 21.6618V28.5377C47.0972 29.0159 46.7037 29.4035 46.2183 29.4035ZM51.8797 12.9523C51.018 12.9523 50.2252 13.1645 49.5014 13.5889C48.7775 13.9964 48.2002 14.5567 47.7693 15.2697C47.3385 15.9828 47.1231 16.7637 47.1231 17.6126C47.1231 18.4615 47.3385 19.2425 47.7693 19.9555C48.2002 20.6686 48.7775 21.2373 49.5014 21.6618C50.2252 22.0862 51.018 22.2984 51.8797 22.2984C52.7414 22.2984 53.5341 22.0862 54.2579 21.6618C54.9818 21.2373 55.5505 20.6686 55.9641 19.9555C56.395 19.2425 56.6104 18.4615 56.6104 17.6126C56.6104 16.7637 56.395 15.9828 55.9641 15.2697C55.5505 14.5567 54.9818 13.9964 54.2579 13.5889C53.5341 13.1645 52.7414 12.9523 51.8797 12.9523Z" fill="#2F3746"/>
<path d="M65.858 11.1442C66.7886 11.1442 67.6417 11.3734 68.4172 11.8318C69.21 12.2732 69.8304 12.8844 70.2785 13.6653C70.7438 14.4293 70.9765 15.2697 70.9765 16.1865V23.1006C70.9765 23.5858 70.5772 23.9792 70.0846 23.9792C69.592 23.9792 69.1928 23.5858 69.1928 23.1006V16.1865C69.1928 15.5923 69.0376 15.0405 68.7274 14.5312C68.4345 14.0219 68.0295 13.6229 67.5124 13.3343C67.0127 13.0287 66.4612 12.8759 65.858 12.8759C65.2548 12.8759 64.6947 13.0287 64.1777 13.3343C63.6606 13.6229 63.247 14.0219 62.9368 14.5312C62.6438 15.0405 62.4973 15.5923 62.4973 16.1865V23.1006C62.4973 23.5858 62.098 23.9792 61.6055 23.9792C61.1129 23.9792 60.7136 23.5858 60.7136 23.1006V7.87176C60.7136 7.38652 61.1129 6.99317 61.6055 6.99317C62.098 6.99317 62.4973 7.38652 62.4973 7.87176V12.5703C62.911 12.0949 63.4021 11.7384 63.9709 11.5007C64.5568 11.263 65.1858 11.1442 65.858 11.1442Z" fill="#2F3746"/>
<path d="M79.8452 24.1065C78.6733 24.1065 77.5789 23.8179 76.5621 23.2407C75.5625 22.6634 74.7698 21.8825 74.1838 20.8978C73.5979 19.8961 73.3049 18.818 73.3049 17.6636C73.3049 16.4921 73.5979 15.414 74.1838 14.4293C74.7698 13.4277 75.5625 12.6382 76.5621 12.061C77.5789 11.4668 78.6733 11.1696 79.8452 11.1696C81.0343 11.1696 82.1287 11.4668 83.1283 12.061C84.1451 12.6382 84.9464 13.4277 85.5324 14.4293C86.1356 15.414 86.4372 16.4921 86.4372 17.6636C86.4372 18.818 86.1356 19.8961 85.5324 20.8978C84.9464 21.8825 84.1451 22.6634 83.1283 23.2407C82.1287 23.8179 81.0343 24.1065 79.8452 24.1065ZM79.8452 22.4003C80.7241 22.4003 81.5255 22.1881 82.2493 21.7636C82.9904 21.3392 83.5763 20.762 84.0072 20.0319C84.438 19.3019 84.6535 18.5124 84.6535 17.6636C84.6535 16.7977 84.438 15.9998 84.0072 15.2697C83.5763 14.5397 82.9904 13.9624 82.2493 13.538C81.5255 13.1136 80.7241 12.9014 79.8452 12.9014C78.9835 12.9014 78.1821 13.1136 77.441 13.538C76.7172 13.9624 76.1399 14.5397 75.709 15.2697C75.2782 15.9998 75.0627 16.7977 75.0627 17.6636C75.0627 18.5124 75.2782 19.3019 75.709 20.0319C76.1399 20.762 76.7172 21.3392 77.441 21.7636C78.1821 22.1881 78.9835 22.4003 79.8452 22.4003Z" fill="#2F3746"/>
<path d="M102.456 24.1065C101.284 24.1065 100.19 23.8179 99.1733 23.2407C98.1737 22.6634 97.381 21.8825 96.795 20.8978C96.2091 19.8961 95.9161 18.818 95.9161 17.6636C95.9161 16.4921 96.2091 15.414 96.795 14.4293C97.381 13.4277 98.1737 12.6382 99.1733 12.061C100.19 11.4668 101.284 11.1696 102.456 11.1696C103.646 11.1696 104.74 11.4668 105.739 12.061C106.756 12.6382 107.558 13.4277 108.144 14.4293C108.747 15.414 109.048 16.4921 109.048 17.6636C109.048 18.818 108.747 19.8961 108.144 20.8978C107.558 21.8825 106.756 22.6634 105.739 23.2407C104.74 23.8179 103.646 24.1065 102.456 24.1065ZM102.456 22.4003C103.335 22.4003 104.137 22.1881 104.861 21.7636C105.602 21.3392 106.188 20.762 106.618 20.0319C107.049 19.3019 107.265 18.5124 107.265 17.6636C107.265 16.7977 107.049 15.9998 106.618 15.2697C106.188 14.5397 105.602 13.9624 104.861 13.538C104.137 13.1136 103.335 12.9014 102.456 12.9014C101.595 12.9014 100.793 13.1136 100.052 13.538C99.3284 13.9624 98.7511 14.5397 98.3202 15.2697C97.8894 15.9998 97.6739 16.7977 97.6739 17.6636C97.6739 18.5124 97.8894 19.3019 98.3202 20.0319C98.7511 20.762 99.3284 21.3392 100.052 21.7636C100.793 22.1881 101.595 22.4003 102.456 22.4003Z" fill="#2F3746"/>
<path d="M115.129 42.5442C114.42 42.5442 113.784 42.4191 113.221 42.1689C112.658 41.9083 112.21 41.5591 111.876 41.1212C111.553 40.6833 111.376 40.1985 111.345 39.6669H113.55C113.591 40.0005 113.753 40.2767 114.035 40.4957C114.326 40.7146 114.686 40.8241 115.114 40.8241C115.531 40.8241 115.854 40.7407 116.083 40.5739C116.323 40.4071 116.443 40.1933 116.443 39.9327C116.443 39.6512 116.297 39.4427 116.005 39.3072C115.723 39.1612 115.27 39.0048 114.644 38.838C113.998 38.6817 113.466 38.5201 113.049 38.3533C112.643 38.1865 112.288 37.931 111.986 37.587C111.694 37.243 111.548 36.779 111.548 36.1952C111.548 35.7156 111.684 35.2778 111.955 34.8816C112.236 34.4855 112.632 34.1727 113.143 33.9433C113.664 33.714 114.274 33.5993 114.973 33.5993C116.005 33.5993 116.829 33.8599 117.444 34.3812C118.059 34.892 118.398 35.5853 118.46 36.4611H116.365C116.333 36.117 116.187 35.846 115.927 35.6479C115.677 35.4394 115.338 35.3351 114.91 35.3351C114.514 35.3351 114.207 35.4081 113.988 35.5541C113.779 35.7 113.675 35.9033 113.675 36.1639C113.675 36.4558 113.821 36.68 114.113 36.8364C114.405 36.9823 114.858 37.1335 115.473 37.2899C116.099 37.4463 116.615 37.6078 117.021 37.7747C117.428 37.9415 117.777 38.2021 118.069 38.5566C118.371 38.9006 118.528 39.3593 118.538 39.9327C118.538 40.4331 118.398 40.8814 118.116 41.2776C117.845 41.6737 117.449 41.9865 116.928 42.2158C116.417 42.4348 115.817 42.5442 115.129 42.5442ZM128.201 33.74V42.4035H125.996V41.3088C125.715 41.6842 125.345 41.9813 124.886 42.2002C124.438 42.4087 123.948 42.513 123.416 42.513C122.738 42.513 122.139 42.3722 121.618 42.0907C121.096 41.7988 120.685 41.3766 120.382 40.8241C120.09 40.2611 119.944 39.5939 119.944 38.8224V33.74H122.134V38.5096C122.134 39.1977 122.306 39.7294 122.65 40.1047C122.994 40.4696 123.463 40.652 124.057 40.652C124.662 40.652 125.136 40.4696 125.48 40.1047C125.824 39.7294 125.996 39.1977 125.996 38.5096V33.74H128.201ZM132.238 34.9911C132.52 34.5949 132.905 34.2665 133.395 34.0059C133.896 33.7348 134.464 33.5993 135.1 33.5993C135.84 33.5993 136.507 33.7817 137.101 34.1466C137.706 34.5115 138.18 35.0328 138.525 35.7104C138.879 36.3777 139.056 37.1543 139.056 38.0405C139.056 38.9267 138.879 39.7138 138.525 40.4018C138.18 41.0795 137.706 41.606 137.101 41.9813C136.507 42.3566 135.84 42.5442 135.1 42.5442C134.464 42.5442 133.901 42.4139 133.411 42.1533C132.931 41.8927 132.54 41.5643 132.238 41.1681V46.5319H130.049V33.74H132.238V34.9911ZM136.82 38.0405C136.82 37.5192 136.711 37.0709 136.492 36.6956C136.283 36.3099 136.002 36.018 135.647 35.8199C135.303 35.6218 134.928 35.5228 134.521 35.5228C134.125 35.5228 133.75 35.627 133.395 35.8355C133.051 36.0336 132.77 36.3255 132.551 36.7113C132.342 37.097 132.238 37.5505 132.238 38.0718C132.238 38.593 132.342 39.0465 132.551 39.4323C132.77 39.818 133.051 40.1151 133.395 40.3236C133.75 40.5217 134.125 40.6208 134.521 40.6208C134.928 40.6208 135.303 40.5165 135.647 40.308C136.002 40.0995 136.283 39.8024 136.492 39.4166C136.711 39.0309 136.82 38.5722 136.82 38.0405ZM142.524 34.9911C142.805 34.5949 143.191 34.2665 143.681 34.0059C144.181 33.7348 144.75 33.5993 145.385 33.5993C146.126 33.5993 146.793 33.7817 147.387 34.1466C147.992 34.5115 148.466 35.0328 148.81 35.7104C149.165 36.3777 149.342 37.1543 149.342 38.0405C149.342 38.9267 149.165 39.7138 148.81 40.4018C148.466 41.0795 147.992 41.606 147.387 41.9813C146.793 42.3566 146.126 42.5442 145.385 42.5442C144.75 42.5442 144.187 42.4139 143.697 42.1533C143.217 41.8927 142.826 41.5643 142.524 41.1681V46.5319H140.334V33.74H142.524V34.9911ZM147.106 38.0405C147.106 37.5192 146.996 37.0709 146.777 36.6956C146.569 36.3099 146.287 36.018 145.933 35.8199C145.589 35.6218 145.213 35.5228 144.807 35.5228C144.411 35.5228 144.035 35.627 143.681 35.8355C143.337 36.0336 143.055 36.3255 142.836 36.7113C142.628 37.097 142.524 37.5505 142.524 38.0718C142.524 38.593 142.628 39.0465 142.836 39.4323C143.055 39.818 143.337 40.1151 143.681 40.3236C144.035 40.5217 144.411 40.6208 144.807 40.6208C145.213 40.6208 145.589 40.5165 145.933 40.308C146.287 40.0995 146.569 39.8024 146.777 39.4166C146.996 39.0309 147.106 38.5722 147.106 38.0405ZM154.467 42.5442C153.633 42.5442 152.882 42.3618 152.215 41.9969C151.548 41.6216 151.021 41.0951 150.636 40.4175C150.26 39.7398 150.073 38.9579 150.073 38.0718C150.073 37.1856 150.266 36.4037 150.651 35.7261C151.047 35.0484 151.584 34.5272 152.262 34.1623C152.94 33.787 153.696 33.5993 154.53 33.5993C155.364 33.5993 156.119 33.787 156.797 34.1623C157.475 34.5272 158.006 35.0484 158.392 35.7261C158.788 36.4037 158.986 37.1856 158.986 38.0718C158.986 38.9579 158.783 39.7398 158.376 40.4175C157.98 41.0951 157.438 41.6216 156.75 41.9969C156.072 42.3618 155.311 42.5442 154.467 42.5442ZM154.467 40.6364C154.863 40.6364 155.233 40.5426 155.577 40.3549C155.932 40.1568 156.213 39.8649 156.422 39.4792C156.63 39.0935 156.734 38.6243 156.734 38.0718C156.734 37.2482 156.516 36.6174 156.078 36.1796C155.65 35.7313 155.124 35.5071 154.498 35.5071C153.873 35.5071 153.346 35.7313 152.919 36.1796C152.502 36.6174 152.293 37.2482 152.293 38.0718C152.293 38.8954 152.497 39.5313 152.903 39.9796C153.32 40.4175 153.841 40.6364 154.467 40.6364ZM162.469 35.0849C162.75 34.6262 163.115 34.2665 163.564 34.0059C164.022 33.7453 164.544 33.6149 165.127 33.6149V35.9137H164.549C163.861 35.9137 163.339 36.0753 162.985 36.3985C162.641 36.7217 162.469 37.2847 162.469 38.0874V42.4035H160.28V33.74H162.469V35.0849ZM168.838 35.5384V39.7294C168.838 40.0213 168.906 40.235 169.041 40.3706C169.187 40.4957 169.427 40.5582 169.761 40.5582H170.777V42.4035H169.401C167.556 42.4035 166.633 41.5069 166.633 39.7138V35.5384H165.601V33.74H166.633V31.5976H168.838V33.74H170.777V35.5384H168.838Z" fill="#D22D2E"/>
<defs>
<filter id="filter0_d_1_4076" x="2.51316" y="3.32109" width="31.2825" height="29.2875" filterUnits="userSpaceOnUse" color-interpolation-filters="sRGB">
<feFlood flood-opacity="0" result="BackgroundImageFix"/>
<feColorMatrix in="SourceAlpha" type="matrix" values="0 0 0 0 0 0 0 0 0 0 0 0 0 0 0 0 0 0 127 0" result="hardAlpha"/>
<feOffset dy="0.807932"/>
<feGaussianBlur stdDeviation="1.2119"/>
<feColorMatrix type="matrix" values="0 0 0 0 0.679167 0 0 0 0 0 0 0 0 0 0.00394873 0 0 0 0.25 0"/>
<feBlend mode="normal" in2="BackgroundImageFix" result="effect1_dropShadow_1_4076"/>
<feBlend mode="normal" in="SourceGraphic" in2="effect1_dropShadow_1_4076" result="shape"/>
</filter>
</defs>
</svg>
